<?xml version="1.0" encoding="UTF-8"?>
<svg width="100px" height="32px" viewBox="0 0 100 32" version="1.1" xmlns="http://www.w3.org/2000/svg">
    <g stroke="none" stroke-width="1" fill="none" fill-rule="evenodd">
        <g transform="translate(10, 4)" fill="#FF9900" fill-rule="nonzero">
            <path d="M29.6,12.8 C26.4,15.2 21.6,16.4 17.6,16.4 C12,16.4 7.2,14.8 3.2,11.6 C2.8,11.2 3.2,10.8 3.6,11.2 C8,14 13.2,15.6 18.8,15.6 C22.4,15.6 26.4,14.8 30,13.2 C30.8,12.8 31.2,13.6 30.4,14 L29.6,12.8 Z"/>
            <path d="M31.2,11.2 C30.8,10.8 28.4,10.8 27.2,10.8 C26,10.8 25.6,10.4 25.6,10 C25.6,9.6 26.8,9.6 28,9.6 C28.4,9.6 30,9.6 30.4,10.4 C30.8,11.2 31.6,10.8 31.6,10.4 C31.6,8.8 29.2,8 27.6,8 C26,8 24,8.4 24,10 C24,11.6 25.6,12.4 27.2,12.4 C28.8,12.4 30.4,12 30.8,12.4 C31.2,12.8 30.8,13.2 30.4,13.2 L31.2,11.2 Z"/>
        </g>
        <text font-family="Arial-BoldMT, Arial" font-size="14" font-weight="bold" fill="#000000">
            <tspan x="45" y="20">Pay</tspan>
        </text>
    </g>
</svg>
