<?xml version="1.0" encoding="UTF-8"?>
<svg width="100px" height="32px" viewBox="0 0 100 32" version="1.1" xmlns="http://www.w3.org/2000/svg">
    <g stroke="none" stroke-width="1" fill="none" fill-rule="evenodd">
        <rect fill="#FFFFFF" x="10" y="4" width="80" height="24" rx="4"/>
        <g transform="translate(20, 8)">
            <path d="M27.2,8.4 L27.2,11.6 L32.8,11.6 C32.4,13.2 30.8,16 27.2,16 C24,16 21.6,13.6 21.6,10.4 C21.6,7.2 24,4.8 27.2,4.8 C29.2,4.8 30.4,5.6 31.2,6.4 L33.6,4 C32,2.4 29.6,1.2 27.2,1.2 C22,1.2 17.6,5.6 17.6,10.4 C17.6,15.2 22,19.6 27.2,19.6 C32.8,19.6 36.4,15.6 36.4,10.8 C36.4,10 36.4,9.2 36,8.4 L27.2,8.4 Z" fill="#4285F4"/>
            <path d="M44,8.4 L40.8,8.4 L40.8,5.2 L37.2,5.2 L37.2,8.4 L35.2,8.4 L35.2,11.6 L37.2,11.6 L37.2,18 L40.8,18 L40.8,11.6 L44,11.6 L44,8.4 Z" fill="#34A853"/>
            <path d="M51.2,4.8 C48,4.8 45.2,7.6 45.2,10.8 C45.2,14 48,16.8 51.2,16.8 C54.4,16.8 57.2,14 57.2,10.8 C57.2,7.6 54.4,4.8 51.2,4.8 Z M51.2,13.6 C49.6,13.6 48.4,12.4 48.4,10.8 C48.4,9.2 49.6,8 51.2,8 C52.8,8 54,9.2 54,10.8 C54,12.4 52.8,13.6 51.2,13.6 Z" fill="#EA4335"/>
        </g>
    </g>
</svg>
