<?xml version="1.0" encoding="UTF-8"?>
<svg width="100px" height="32px" viewBox="0 0 100 32" version="1.1" xmlns="http://www.w3.org/2000/svg">
    <g stroke="none" stroke-width="1" fill="none" fill-rule="evenodd">
        <g transform="translate(20, 4)" fill-rule="nonzero">
            <path d="M46.2,11.3 C46.2,16.4 42.1,20 36.8,20 L32.7,20 L34.1,11.3 L39.2,11.3 C43.5,11.3 46.2,13.9 46.2,16.9 L46.2,11.3 Z" fill="#179BD7"/>
            <path d="M39.2,0 L25.4,0 C24.4,0 23.5,0.8 23.3,1.8 L19.2,20 L25.4,20 L27.3,11.3 L34.1,11.3 C39.4,11.3 43.5,7.7 43.5,2.6 C43.5,1.1 42.3,0 40.8,0 L39.2,0 Z" fill="#253B80"/>
            <path d="M13.5,0 L0,0 C-0.3,1.8 0,2.6 0.5,3.1 C1,3.6 1.8,4.1 3.1,4.1 L8.7,4.1 L6.7,20 L12.8,20 L16.9,1.8 C17.2,0.8 16.4,0 15.4,0 L13.5,0 Z" fill="#253B80"/>
        </g>
    </g>
</svg>
