<?xml version="1.0" encoding="UTF-8"?>
<svg width="100px" height="32px" viewBox="0 0 100 32" version="1.1" xmlns="http://www.w3.org/2000/svg">
    <g stroke="none" stroke-width="1" fill="none" fill-rule="evenodd">
        <g transform="translate(0, 5)" fill-rule="nonzero">
            <path d="M41.6,0.8 L37.2,20.8 L43.2,20.8 L47.6,0.8 L41.6,0.8 Z" fill="#1A1F71"/>
            <path d="M28.8,0.8 L23.2,14.4 L21.6,2.4 C21.6,1.6 20.8,0.8 20,0.8 L10.4,0.8 L10.4,1.6 C12,2.4 14.4,3.2 15.2,4 C16,4.8 16.8,6.4 17.6,8.8 L20.8,20.8 L26.4,20.8 L36,0.8 L28.8,0.8 Z" fill="#1A1F71"/>
            <path d="M52.8,14.4 C52.8,18.4 56,20.8 60.8,20.8 C63.2,20.8 64.8,20 66.4,19.2 L65.6,15.2 C64,16 62.4,16.8 60.8,16.8 C58.4,16.8 57.6,15.2 57.6,14.4 C57.6,12 60,11.2 62.4,9.6 C65.6,7.2 66.4,4.8 66.4,2.4 C66.4,-1.6 63.2,-4 58.4,-4 C55.2,-4 52.8,-3.2 51.2,-2.4 L52,-1.6 C53.6,-2.4 56,-3.2 57.6,-3.2 C60,-3.2 61.6,-1.6 61.6,0 C61.6,2.4 59.2,3.2 56.8,4.8 C53.6,7.2 52.8,10.4 52.8,14.4 Z" fill="#1A1F71"/>
            <path d="M0,0.8 L0,1.6 C1.6,2.4 4,3.2 4.8,4 C6.4,4.8 7.2,6.4 8,8.8 L14.4,20.8 L20,20.8 L28,0.8 L22.4,0.8 L17.6,14.4 L16,2.4 C15.2,1.6 14.4,0.8 13.6,0.8 L0,0.8 Z" fill="#1A1F71"/>
        </g>
    </g>
</svg>
